<svg width="33" height="33" viewBox="0 0 33 33" fill="none" xmlns="http://www.w3.org/2000/svg">
<path d="M6.82666 23.5791V9.55078C6.82666 9.3737 6.8903 9.21875 7.01758 9.08594C7.15039 8.95312 7.31087 8.88672 7.49902 8.88672C7.68164 8.88672 7.83659 8.95312 7.96387 9.08594C8.09668 9.21875 8.16309 9.3737 8.16309 9.55078V22.6743C8.16309 22.8293 8.24056 22.9067 8.39551 22.9067H24.001C24.1836 22.9067 24.3413 22.9704 24.4741 23.0977C24.6069 23.2305 24.6733 23.3882 24.6733 23.5708C24.6733 23.759 24.6069 23.9167 24.4741 24.0439C24.3413 24.1712 24.1836 24.2349 24.001 24.2349H7.49072C7.2915 24.2349 7.13102 24.174 7.00928 24.0522C6.88753 23.936 6.82666 23.7783 6.82666 23.5791ZM7.69824 18.416V17.2788L13.1187 14.1494L16.9453 17.4282L23.1875 13.7095L23.7104 14.5562L16.8789 18.6235L13.0356 15.3281L7.69824 18.416ZM12.9277 16.4487C12.6566 16.4487 12.4076 16.3823 12.1807 16.2495C11.9593 16.1167 11.7822 15.9396 11.6494 15.7183C11.5166 15.4914 11.4502 15.2424 11.4502 14.9712C11.4502 14.7 11.5166 14.4538 11.6494 14.2324C11.7822 14.0055 11.9593 13.8285 12.1807 13.7012C12.4076 13.5684 12.6566 13.502 12.9277 13.502C13.1989 13.502 13.4451 13.5684 13.6665 13.7012C13.8934 13.8285 14.0732 14.0055 14.2061 14.2324C14.3389 14.4538 14.4053 14.7 14.4053 14.9712C14.4053 15.2424 14.3389 15.4914 14.2061 15.7183C14.0732 15.9396 13.8934 16.1167 13.6665 16.2495C13.4451 16.3823 13.1989 16.4487 12.9277 16.4487ZM16.8457 19.4951C16.5745 19.4951 16.3255 19.4287 16.0986 19.2959C15.8773 19.1631 15.7002 18.986 15.5674 18.7646C15.4346 18.5378 15.3682 18.2887 15.3682 18.0176C15.3682 17.7464 15.4346 17.5002 15.5674 17.2788C15.7002 17.0519 15.8773 16.8748 16.0986 16.7476C16.3255 16.6147 16.5745 16.5483 16.8457 16.5483C17.1169 16.5483 17.3631 16.6147 17.5845 16.7476C17.8114 16.8748 17.9884 17.0519 18.1157 17.2788C18.2485 17.5002 18.3149 17.7464 18.3149 18.0176C18.3149 18.2887 18.2485 18.5378 18.1157 18.7646C17.9884 18.986 17.8114 19.1631 17.5845 19.2959C17.3631 19.4287 17.1169 19.4951 16.8457 19.4951ZM23.1045 15.7183C22.8333 15.7183 22.5843 15.6519 22.3574 15.519C22.1361 15.3862 21.959 15.2091 21.8262 14.9878C21.6934 14.7609 21.627 14.5119 21.627 14.2407C21.627 13.9696 21.6934 13.7233 21.8262 13.502C21.959 13.2751 22.1361 13.0952 22.3574 12.9624C22.5843 12.8296 22.8333 12.7632 23.1045 12.7632C23.3757 12.7632 23.6219 12.8296 23.8433 12.9624C24.0701 13.0952 24.25 13.2751 24.3828 13.502C24.5156 13.7233 24.582 13.9696 24.582 14.2407C24.582 14.5119 24.5156 14.7609 24.3828 14.9878C24.25 15.2091 24.0701 15.3862 23.8433 15.519C23.6219 15.6519 23.3757 15.7183 23.1045 15.7183Z" fill="#5837EC"/>
</svg>
