<svg width="33" height="33" viewBox="0 0 33 33" fill="none" xmlns="http://www.w3.org/2000/svg">
<path d="M12.0352 25.397C11.7585 25.397 11.5426 25.3084 11.3877 25.1313C11.2327 24.9543 11.1553 24.7052 11.1553 24.3843V9.97412C11.1553 9.18278 11.3517 8.58789 11.7446 8.18945C12.1375 7.79102 12.7241 7.5918 13.5044 7.5918H19.9956C20.7759 7.5918 21.3625 7.79102 21.7554 8.18945C22.1483 8.58789 22.3447 9.18278 22.3447 9.97412V24.3843C22.3447 24.7052 22.2673 24.9543 22.1123 25.1313C21.9574 25.3084 21.7415 25.397 21.4648 25.397C21.2601 25.397 21.0692 25.3278 20.8921 25.1895C20.7205 25.0511 20.4466 24.8021 20.0703 24.4424L16.8247 21.2466C16.7749 21.1912 16.7251 21.1912 16.6753 21.2466L13.4297 24.4424C13.0534 24.8076 12.7767 25.0566 12.5996 25.1895C12.4225 25.3278 12.2344 25.397 12.0352 25.397ZM12.7158 23.1558L16.3101 19.6694C16.4429 19.5422 16.5895 19.4785 16.75 19.4785C16.9105 19.4785 17.0571 19.5422 17.1899 19.6694L20.7842 23.1558C20.8451 23.2111 20.9004 23.2305 20.9502 23.2139C21.0055 23.2028 21.0332 23.1558 21.0332 23.0728V9.99072C21.0332 9.63102 20.9391 9.35986 20.751 9.17725C20.5684 8.99463 20.2972 8.90332 19.9375 8.90332H13.5708C13.2056 8.90332 12.9289 8.99463 12.7407 9.17725C12.5581 9.35986 12.4668 9.63102 12.4668 9.99072V23.0728C12.4668 23.1558 12.4917 23.2028 12.5415 23.2139C12.5968 23.2305 12.6549 23.2111 12.7158 23.1558Z" fill="#5837EC"/>
</svg>
