<svg width="33" height="33" viewBox="0 0 33 33" fill="none" xmlns="http://www.w3.org/2000/svg">
<path d="M6.81201 22.8984V15.7017C6.81201 15.2091 6.95866 14.8273 7.25195 14.5562C7.55078 14.2795 7.96305 14.1411 8.48877 14.1411H10.4727V10.1816C10.4727 9.32389 10.6885 8.68197 11.1201 8.25586C11.5573 7.82422 12.2103 7.6084 13.0791 7.6084H23.0815C23.9504 7.6084 24.6006 7.82422 25.0322 8.25586C25.4694 8.68197 25.688 9.32389 25.688 10.1816V22.8403C25.688 23.6925 25.4694 24.3317 25.0322 24.7578C24.6006 25.1895 23.9504 25.4053 23.0815 25.4053H9.31885C8.4777 25.4053 7.84961 25.195 7.43457 24.7744C7.01953 24.3538 6.81201 23.7285 6.81201 22.8984ZM8.14844 22.8984C8.14844 23.2305 8.25911 23.5072 8.48047 23.7285C8.70736 23.9554 8.98682 24.0688 9.31885 24.0688C9.63981 24.0688 9.91097 23.9582 10.1323 23.7368C10.3592 23.521 10.4727 23.2415 10.4727 22.8984V15.4775H8.63818C8.48324 15.4775 8.36149 15.5218 8.27295 15.6104C8.18994 15.6934 8.14844 15.8096 8.14844 15.959V22.8984ZM11.5269 24.0688H23.0566C23.4717 24.0688 23.7899 23.9582 24.0112 23.7368C24.2381 23.521 24.3516 23.1973 24.3516 22.7656V10.2563C24.3516 9.82471 24.2381 9.49821 24.0112 9.27686C23.7899 9.0555 23.4717 8.94482 23.0566 8.94482H13.104C12.689 8.94482 12.368 9.0555 12.1411 9.27686C11.9198 9.49821 11.8091 9.82471 11.8091 10.2563V22.8154C11.8091 23.2858 11.715 23.7036 11.5269 24.0688ZM13.9673 12.5557C13.8179 12.5557 13.6934 12.5059 13.5938 12.4062C13.4941 12.3011 13.4443 12.1766 13.4443 12.0327C13.4443 11.8944 13.4941 11.7782 13.5938 11.6841C13.6934 11.5845 13.8179 11.5347 13.9673 11.5347H22.21C22.3538 11.5347 22.4756 11.5845 22.5752 11.6841C22.6748 11.7782 22.7246 11.8944 22.7246 12.0327C22.7246 12.1766 22.6748 12.3011 22.5752 12.4062C22.4756 12.5059 22.3538 12.5557 22.21 12.5557H13.9673ZM13.9673 15.4775C13.8179 15.4775 13.6934 15.4305 13.5938 15.3364C13.4941 15.2368 13.4443 15.1151 13.4443 14.9712C13.4443 14.8273 13.4941 14.7056 13.5938 14.606C13.6934 14.5063 13.8179 14.4565 13.9673 14.4565H22.21C22.3538 14.4565 22.4756 14.5063 22.5752 14.606C22.6748 14.7056 22.7246 14.8273 22.7246 14.9712C22.7246 15.1151 22.6748 15.2368 22.5752 15.3364C22.4756 15.4305 22.3538 15.4775 22.21 15.4775H13.9673ZM14.457 21.396C14.1361 21.396 13.8843 21.3075 13.7017 21.1304C13.5246 20.9478 13.436 20.6987 13.436 20.3833V18.4077C13.436 18.0868 13.5246 17.8377 13.7017 17.6606C13.8843 17.478 14.1361 17.3867 14.457 17.3867H16.6069C16.9224 17.3867 17.1686 17.478 17.3457 17.6606C17.5283 17.8377 17.6196 18.0868 17.6196 18.4077V20.3833C17.6196 20.6987 17.5283 20.9478 17.3457 21.1304C17.1686 21.3075 16.9224 21.396 16.6069 21.396H14.457ZM19.1138 18.4077C18.9644 18.4077 18.8398 18.3607 18.7402 18.2666C18.6462 18.167 18.5991 18.048 18.5991 17.9097C18.5991 17.7603 18.6462 17.6357 18.7402 17.5361C18.8398 17.4365 18.9644 17.3867 19.1138 17.3867H22.2017C22.3511 17.3867 22.4728 17.4365 22.5669 17.5361C22.6665 17.6357 22.7163 17.7603 22.7163 17.9097C22.7163 18.048 22.6665 18.167 22.5669 18.2666C22.4728 18.3607 22.3511 18.4077 22.2017 18.4077H19.1138ZM19.1138 21.396C18.9644 21.396 18.8398 21.349 18.7402 21.2549C18.6462 21.1553 18.5991 21.0363 18.5991 20.8979C18.5991 20.7485 18.6462 20.624 18.7402 20.5244C18.8398 20.4248 18.9644 20.375 19.1138 20.375H22.2017C22.3511 20.375 22.4728 20.4248 22.5669 20.5244C22.6665 20.624 22.7163 20.7485 22.7163 20.8979C22.7163 21.0363 22.6665 21.1553 22.5669 21.2549C22.4728 21.349 22.3511 21.396 22.2017 21.396H19.1138Z" fill="#5837EC"/>
</svg>
