<svg width="33" height="33" viewBox="0 0 33 33" fill="none" xmlns="http://www.w3.org/2000/svg">
<path d="M15.4116 25.3804C15.0907 25.3804 14.814 25.2891 14.5815 25.1064C14.3547 24.9294 14.2052 24.6859 14.1333 24.376L13.7681 22.8237L13.5024 22.7324L12.1577 23.5625C11.8866 23.734 11.6043 23.8005 11.311 23.7617C11.0177 23.723 10.7576 23.5902 10.5308 23.3633L9.37695 22.2095C9.14453 21.9826 9.00895 21.7225 8.97021 21.4292C8.93701 21.1359 9.00618 20.8564 9.17773 20.5908L10.0161 19.2461L9.9248 18.9971L8.37256 18.6318C8.0682 18.5599 7.82471 18.4077 7.64209 18.1753C7.45947 17.9429 7.36816 17.6689 7.36816 17.3535V15.71C7.36816 15.3945 7.45671 15.1206 7.63379 14.8882C7.81641 14.6558 8.06266 14.5036 8.37256 14.4316L9.9082 14.0581L10.0078 13.7925L9.16943 12.4478C8.99788 12.1821 8.92871 11.9054 8.96191 11.6177C9.00065 11.3244 9.13623 11.0615 9.36865 10.8291L10.5225 9.66699C10.7493 9.44564 11.0067 9.31559 11.2944 9.27686C11.5877 9.23812 11.87 9.30176 12.1411 9.46777L13.4858 10.2979L13.7681 10.1899L14.1333 8.6377C14.2052 8.33333 14.3547 8.08984 14.5815 7.90723C14.814 7.72461 15.0907 7.6333 15.4116 7.6333H17.0884C17.4093 7.6333 17.6833 7.72461 17.9102 7.90723C18.1426 8.08984 18.2948 8.33333 18.3667 8.6377L18.7236 10.1899L19.0059 10.2979L20.3589 9.46777C20.6245 9.30176 20.904 9.23812 21.1973 9.27686C21.4906 9.31559 21.7479 9.44564 21.9692 9.66699L23.1313 10.8291C23.3582 11.0615 23.491 11.3244 23.5298 11.6177C23.5685 11.9054 23.5021 12.1821 23.3306 12.4478L22.4839 13.7925L22.5918 14.0581L24.1274 14.4316C24.4318 14.5036 24.6753 14.6558 24.8579 14.8882C25.0405 15.1206 25.1318 15.3945 25.1318 15.71V17.3535C25.1318 17.6689 25.0405 17.9429 24.8579 18.1753C24.6753 18.4077 24.4318 18.5599 24.1274 18.6318L22.5752 18.9971L22.4756 19.2461L23.3223 20.5908C23.4938 20.8564 23.5602 21.1359 23.5215 21.4292C23.4827 21.7225 23.3499 21.9826 23.123 22.2095L21.9609 23.3633C21.734 23.5902 21.474 23.723 21.1807 23.7617C20.8874 23.8005 20.6079 23.734 20.3423 23.5625L18.9893 22.7324L18.7236 22.8237L18.3667 24.376C18.2948 24.6859 18.1426 24.9294 17.9102 25.1064C17.6833 25.2891 17.4093 25.3804 17.0884 25.3804H15.4116ZM15.5444 24.0854H16.9556C17.0939 24.0854 17.1714 24.0218 17.188 23.8945L17.6943 21.8359C17.9489 21.7751 18.1896 21.6976 18.4165 21.6035C18.6434 21.5039 18.8454 21.3988 19.0225 21.2881L20.832 22.4004C20.9372 22.4723 21.0423 22.4585 21.1475 22.3589L22.1187 21.3794C22.2127 21.2964 22.2238 21.194 22.1519 21.0723L21.0396 19.2793C21.1392 19.1022 21.236 18.9002 21.3301 18.6733C21.4297 18.4465 21.5127 18.2057 21.5791 17.9512L23.646 17.4614C23.7733 17.4393 23.8369 17.359 23.8369 17.2207V15.8345C23.8369 15.7017 23.7733 15.6214 23.646 15.5938L21.5874 15.0957C21.521 14.8245 21.4352 14.5728 21.3301 14.3403C21.2249 14.1079 21.1336 13.9142 21.0562 13.7593L22.1602 11.9663C22.2376 11.8446 22.2293 11.7367 22.1353 11.6426L21.1558 10.6797C21.0562 10.5911 20.9482 10.5773 20.832 10.6382L19.0308 11.7339C18.8481 11.6343 18.6434 11.5374 18.4165 11.4434C18.1951 11.3438 17.9544 11.2607 17.6943 11.1943L17.188 9.11914C17.1714 8.99186 17.0939 8.92822 16.9556 8.92822H15.5444C15.4061 8.92822 15.3258 8.99186 15.3037 9.11914L14.814 11.1777C14.5649 11.2441 14.3187 11.3271 14.0752 11.4268C13.8372 11.5264 13.6297 11.626 13.4526 11.7256L11.6597 10.6382C11.549 10.5773 11.4438 10.5911 11.3442 10.6797L10.3564 11.6426C10.2679 11.7367 10.2596 11.8446 10.3315 11.9663L11.4355 13.7593C11.3636 13.9142 11.2723 14.1079 11.1616 14.3403C11.0565 14.5728 10.9707 14.8245 10.9043 15.0957L8.854 15.5938C8.72673 15.6214 8.66309 15.7017 8.66309 15.8345V17.2207C8.66309 17.359 8.72673 17.4393 8.854 17.4614L10.9126 17.9512C10.979 18.2057 11.062 18.4465 11.1616 18.6733C11.2612 18.9002 11.3581 19.1022 11.4521 19.2793L10.3398 21.0723C10.2734 21.194 10.2845 21.2964 10.373 21.3794L11.3525 22.3589C11.4577 22.4585 11.5601 22.4723 11.6597 22.4004L13.4692 21.2881C13.6463 21.3988 13.8483 21.5039 14.0752 21.6035C14.3076 21.6976 14.5511 21.7751 14.8057 21.8359L15.3037 23.8945C15.3258 24.0218 15.4061 24.0854 15.5444 24.0854ZM16.25 19.6777C15.6689 19.6777 15.1377 19.5339 14.6562 19.2461C14.1803 18.9583 13.7985 18.5765 13.5107 18.1006C13.223 17.6191 13.0791 17.0879 13.0791 16.5068C13.0791 15.9313 13.223 15.4056 13.5107 14.9297C13.7985 14.4482 14.1803 14.0664 14.6562 13.7842C15.1377 13.4964 15.6689 13.3525 16.25 13.3525C16.8311 13.3525 17.3595 13.4964 17.8354 13.7842C18.3169 14.0664 18.6987 14.4482 18.981 14.9297C19.2687 15.4056 19.4126 15.9313 19.4126 16.5068C19.4126 17.0879 19.2687 17.6191 18.981 18.1006C18.6987 18.582 18.3169 18.9666 17.8354 19.2544C17.3595 19.5366 16.8311 19.6777 16.25 19.6777ZM16.25 18.3911C16.5876 18.3911 16.8975 18.3053 17.1797 18.1338C17.4619 17.9622 17.686 17.7354 17.8521 17.4531C18.0236 17.1654 18.1094 16.8499 18.1094 16.5068C18.1094 16.1637 18.0236 15.8511 17.8521 15.5688C17.686 15.2866 17.4619 15.0625 17.1797 14.8965C16.8975 14.7249 16.5876 14.6392 16.25 14.6392C15.9069 14.6392 15.5915 14.7249 15.3037 14.8965C15.0215 15.0625 14.7946 15.2866 14.623 15.5688C14.457 15.8511 14.374 16.1637 14.374 16.5068C14.374 16.8555 14.457 17.1737 14.623 17.4614C14.7946 17.7437 15.0215 17.9705 15.3037 18.1421C15.5915 18.3081 15.9069 18.3911 16.25 18.3911Z" fill="#5837EC"/>
</svg>
